<svg aria-hidden="true" style="position: absolute; width: 0; height: 0; overflow: hidden;" version="1.1" xmlns="http://www.w3.org/2000/svg" xmlns:xlink="http://www.w3.org/1999/xlink">
<defs>
<symbol id="icon-letter" viewBox="0 0 32 32">
<path fill="none" stroke="#4985ff" style="stroke: var(--color1, #4985ff)" stroke-linejoin="miter" stroke-linecap="butt" stroke-miterlimit="4" stroke-width="0.3556" d="M31.822 16c0 8.738-7.084 15.822-15.822 15.822s-15.822-7.084-15.822-15.822c0-8.738 7.084-15.822 15.822-15.822s15.822 7.084 15.822 15.822z"></path>
<path fill="#4985ff" style="fill: var(--color1, #4985ff)" d="M22.874 8.889h-10.667c-0.131 0-0.237 0.106-0.237 0.237v3.556h0.474v-3.319h10.193v13.037c0.002 0.125-0.094 0.229-0.218 0.237-0.020 0-0.041-0.002-0.061-0.002-0.042-0.001-0.084-0.002-0.125-0.006-0.004 0-0.007 0-0.010-0.001-0.774-0.085-1.386-0.696-1.471-1.47 0-0.003-0.001-0.007-0.002-0.010-0.006-0.056-0.009-0.113-0.009-0.169v-0.474c0-0.131-0.106-0.237-0.237-0.237h-8.059v-4.267h-0.474v4.267h-1.896c-0.131 0-0.237 0.106-0.237 0.237v0.474c0.001 1.178 0.956 2.132 2.133 2.133h10.453c0.385-0.010 0.69-0.326 0.687-0.711v-13.274c0-0.131-0.106-0.237-0.237-0.237zM11.97 22.637c-0.916-0.001-1.658-0.743-1.659-1.659v-0.237h9.956v0.237c0 0.078 0.005 0.156 0.014 0.234 0.002 0.021 0.006 0.041 0.009 0.061 0.008 0.057 0.017 0.114 0.030 0.171 0.004 0.020 0.010 0.039 0.015 0.059 0.014 0.057 0.031 0.113 0.050 0.169 0.005 0.016 0.011 0.032 0.017 0.047 0.022 0.059 0.046 0.116 0.073 0.173 0.006 0.012 0.011 0.024 0.017 0.034 0.030 0.060 0.062 0.118 0.098 0.175 0.005 0.008 0.009 0.015 0.014 0.024 0.039 0.061 0.080 0.119 0.125 0.175l0.008 0.010c0.052 0.065 0.107 0.127 0.166 0.186 0.051 0.051 0.104 0.098 0.159 0.142l-9.088-0.001z"></path>
<path fill="#4985ff" style="fill: var(--color1, #4985ff)" d="M16.711 15.526c0.063 0 0.123-0.025 0.168-0.069l0.948-0.948c0.093-0.093 0.093-0.243 0-0.335l-0.948-0.948c-0.044-0.044-0.105-0.069-0.168-0.069h-6.637c-0.655 0-1.185 0.531-1.185 1.185s0.531 1.185 1.185 1.185h6.637zM16.65 13.667l0.674 0.674-0.674 0.674-0.169-0.674 0.169-0.674zM10.785 13.63h5.386l-0.119 0.474h-4.793v0.474h4.793l0.119 0.474h-5.386v-1.422zM9.363 14.341c0-0.393 0.318-0.711 0.711-0.711h0.237v1.422h-0.237c-0.393 0-0.711-0.318-0.711-0.711z"></path>
<path fill="#4985ff" style="fill: var(--color1, #4985ff)" d="M14.34 19.081h7.111c0.131 0 0.237-0.106 0.237-0.237v-7.111c-0-0.131-0.106-0.237-0.237-0.237-0.063 0-0.123 0.025-0.168 0.069l-7.111 7.111c-0.093 0.093-0.092 0.243 0 0.335 0.044 0.044 0.105 0.069 0.168 0.069zM21.215 12.306v0.613h-0.474v0.474h0.474v0.474h-0.474v0.474h0.474v0.474h-0.474v0.474h0.474v0.474h-0.474v0.474h0.474v0.474h-0.474v0.474h0.474v0.474h-0.474v0.474h0.474v0.474h-0.474v-0.474h-0.474v0.474h-0.474v-0.474h-0.474v0.474h-0.474v-0.474h-0.474v0.474h-0.474v-0.474h-0.474v0.474h-0.474v-0.474h-0.474v0.474h-0.474v-0.474h-0.474v0.474h-0.613l6.302-6.302z"></path>
<path fill="#4985ff" style="fill: var(--color1, #4985ff)" d="M17.774 17.659h2.255c0.131 0 0.237-0.106 0.237-0.237v-2.255c0-0.131-0.106-0.237-0.237-0.237-0.063 0-0.123 0.025-0.168 0.069l-2.255 2.255c-0.093 0.093-0.093 0.243 0 0.335 0.044 0.044 0.105 0.069 0.168 0.069zM19.793 15.739v1.446h-1.446l1.446-1.446z"></path>
<path fill="#4985ff" style="fill: var(--color1, #4985ff)" d="M19.793 10.311h-4.741v0.474h4.741v-0.474z"></path>
<path fill="#4985ff" style="fill: var(--color1, #4985ff)" d="M20.504 11.259h-6.163v0.474h6.163v-0.474z"></path>
<path fill="#4985ff" style="fill: var(--color1, #4985ff)" d="M14.341 16.237h-1.422v0.474h1.422v-0.474z"></path>
<path fill="#4985ff" style="fill: var(--color1, #4985ff)" d="M13.867 17.185h-0.948v0.474h0.948v-0.474z"></path>
</symbol>
<symbol id="icon-web" viewBox="0 0 32 32">
<path fill="#4985ff" style="fill: var(--color1, #4985ff)" d="M12.626 22.425c-0.121 0-0.243-0.042-0.342-0.126l-3.419-2.911c-0.118-0.1-0.186-0.247-0.186-0.402s0.068-0.302 0.186-0.402l3.419-2.911c0.222-0.189 0.555-0.162 0.745 0.060s0.162 0.556-0.060 0.745l-2.946 2.509 2.946 2.509c0.222 0.189 0.249 0.523 0.060 0.745-0.105 0.123-0.253 0.186-0.403 0.186z"></path>
<path fill="#4985ff" style="fill: var(--color1, #4985ff)" d="M19.374 22.425c-0.149 0-0.298-0.063-0.402-0.186-0.189-0.222-0.162-0.555 0.060-0.745l2.946-2.509-2.946-2.509c-0.222-0.189-0.249-0.522-0.060-0.745s0.523-0.249 0.744-0.060l3.419 2.911c0.118 0.1 0.186 0.247 0.186 0.402s-0.068 0.302-0.186 0.402l-3.419 2.911c-0.099 0.085-0.221 0.126-0.342 0.126z"></path>
<path fill="#4985ff" style="fill: var(--color1, #4985ff)" d="M14.79 24.609c-0.036 0-0.073-0.004-0.11-0.012-0.285-0.060-0.468-0.34-0.408-0.626l2.131-10.116c0.060-0.285 0.34-0.468 0.626-0.408s0.468 0.34 0.408 0.626l-2.131 10.116c-0.052 0.249-0.272 0.42-0.516 0.42z"></path>
<path fill="#4985ff" style="fill: var(--color1, #4985ff)" d="M28.453 30.12h-24.906c-1.956 0-3.547-1.591-3.547-3.547v-21.139c0-1.956 1.591-3.547 3.547-3.547h24.906c1.956 0 3.547 1.591 3.547 3.547v21.139c0 1.956-1.591 3.547-3.547 3.547zM3.547 2.944c-1.373 0-2.491 1.117-2.491 2.491v21.139c0 1.373 1.117 2.491 2.491 2.491h24.906c1.373 0 2.491-1.117 2.491-2.491v-21.139c0-1.373-1.117-2.491-2.491-2.491h-24.906z"></path>
<path fill="#4985ff" style="fill: var(--color1, #4985ff)" d="M31.472 10.346h-30.943c-0.292 0-0.528-0.236-0.528-0.528s0.236-0.528 0.528-0.528h30.943c0.292 0 0.528 0.237 0.528 0.528s-0.236 0.528-0.528 0.528z"></path>
<path fill="#4985ff" style="fill: var(--color1, #4985ff)" d="M9.026 7.818c-0.922 0-1.672-0.75-1.672-1.672s0.75-1.672 1.672-1.672c0.922 0 1.672 0.75 1.672 1.672s-0.75 1.672-1.672 1.672zM9.026 5.531c-0.339 0-0.615 0.276-0.615 0.615s0.276 0.615 0.615 0.615c0.339 0 0.615-0.276 0.615-0.615s-0.276-0.615-0.615-0.615z"></path>
<path fill="#4985ff" style="fill: var(--color1, #4985ff)" d="M3.891 7.802c-0.922 0-1.672-0.75-1.672-1.672s0.75-1.672 1.672-1.672c0.922 0 1.672 0.75 1.672 1.672s-0.75 1.672-1.672 1.672zM3.891 5.515c-0.339 0-0.615 0.276-0.615 0.615s0.276 0.615 0.615 0.615c0.339 0 0.615-0.276 0.615-0.615s-0.276-0.615-0.615-0.615z"></path>
<path fill="#4985ff" style="fill: var(--color1, #4985ff)" d="M14.163 7.834c-0.921 0-1.672-0.75-1.672-1.672s0.75-1.672 1.672-1.672c0.922 0 1.672 0.75 1.672 1.672s-0.75 1.672-1.672 1.672zM14.163 5.547c-0.339 0-0.615 0.276-0.615 0.615s0.276 0.615 0.615 0.615c0.339 0 0.615-0.276 0.615-0.615s-0.276-0.615-0.615-0.615z"></path>
</symbol>
</defs>
</svg>
